<svg xmlns="http://www.w3.org/2000/svg" width="30" height="24" viewBox="0 0 30 24"><defs><style>.a,.b,.c{isolation:isolate;}.b{fill:#9ea3ae;}.c{fill:#fff;}</style></defs><g class="a"><path class="b" d="M2.092,20.571A2.123,2.123,0,0,1,0,18.42V2.151A2.124,2.124,0,0,1,2.092,0H24.575a2.122,2.122,0,0,1,2.092,2.151V18.42a2.122,2.122,0,0,1-2.092,2.151Z" transform="translate(1.667 1.714)"/><path class="c" d="M26.241,24H3.758A3.818,3.818,0,0,1,0,20.134V3.866A3.817,3.817,0,0,1,3.758,0H26.241A3.817,3.817,0,0,1,30,3.866V20.134A3.818,3.818,0,0,1,26.241,24ZM3.758,3.429a.431.431,0,0,0-.425.437V20.134a.432.432,0,0,0,.425.437H26.241a.432.432,0,0,0,.426-.437V3.866a.432.432,0,0,0-.426-.437Z"/><path class="b" d="M14.575,0H2.092A2.121,2.121,0,0,0,0,2.151V18.42a2.121,2.121,0,0,0,2.092,2.151H4.575A2.122,2.122,0,0,0,6.667,18.42V9.009A2.122,2.122,0,0,1,8.758,6.857h5.817a2.122,2.122,0,0,0,2.092-2.151V2.151A2.122,2.122,0,0,0,14.575,0Z" transform="translate(11.667 1.714)"/><path class="c" d="M6.241,24H3.758A3.818,3.818,0,0,1,0,20.134V3.866A3.817,3.817,0,0,1,3.758,0H16.241A3.817,3.817,0,0,1,20,3.866V6.42a3.818,3.818,0,0,1-3.758,3.866H10.425a.431.431,0,0,0-.425.437v9.411A3.818,3.818,0,0,1,6.241,24ZM3.758,3.429a.431.431,0,0,0-.425.437V20.134a.432.432,0,0,0,.425.437H6.241a.432.432,0,0,0,.425-.437V10.723a3.817,3.817,0,0,1,3.758-3.866h5.817a.432.432,0,0,0,.425-.437V3.866a.431.431,0,0,0-.425-.437Z" transform="translate(10)"/><path class="c" d="M1.667,3.429A1.691,1.691,0,0,1,0,1.714,1.691,1.691,0,0,1,1.667,0h10a1.691,1.691,0,0,1,1.667,1.714,1.691,1.691,0,0,1-1.667,1.714Z" transform="translate(16.667 13.714)"/><path class="c" d="M1.667,3.429A1.691,1.691,0,0,1,0,1.714,1.691,1.691,0,0,1,1.667,0h10a1.691,1.691,0,0,1,1.667,1.714,1.691,1.691,0,0,1-1.667,1.714Z" transform="translate(0 6.857)"/><path class="c" d="M1.667,3.429A1.691,1.691,0,0,1,0,1.714,1.691,1.691,0,0,1,1.667,0h10a1.691,1.691,0,0,1,1.667,1.714,1.691,1.691,0,0,1-1.667,1.714Z" transform="translate(0 13.714)"/></g></svg>